# xmcd
#
# Track frame offsets:
# 150
# 13112
# 26305
# 41426
# 57090
# 79167
# 96723
# 108556
# 121643
#
# Disc length: 1902 seconds
#
# Revision: 1
# Processed by: cddbd v1.5.1PL0 Copyright (c) Steve Scherf et al.
# Submitted via: Easy CD Ripper v2.00
#
DISCID=69076c09
DTITLE=Nora O'Connor - Til The Dawn
DYEAR=2004
DGENRE=Country
TTITLE0=My Backyard
TTITLE1=Bottoms
TTITLE2=That's Alright
TTITLE3=Revolver
TTITLE4=Tonight
TTITLE5=OK With Me
TTITLE6=Love Letters
TTITLE7=Nightingale
TTITLE8=Down Here
EXTD=
EXTT0=
EXTT1=
EXTT2=
EXTT3=
EXTT4=
EXTT5=
EXTT6=
EXTT7=
EXTT8=
PLAYORDER=
